<svg xmlns="http://www.w3.org/2000/svg" xmlns:xlink="http://www.w3.org/1999/xlink" width="131" height="126" viewBox="0 0 131 126">
    <defs>
        <rect id="a" width="131" height="126" rx="9.205"/>
        <mask id="b" width="131" height="126" x="0" y="0" fill="#fff">
            <use xlink:href="#a"/>
        </mask>
    </defs>
    <g fill="none" fill-rule="evenodd">
        <path fill="#C7C7C7" fill-rule="nonzero" d="M32.573 27.243v43.59c0 1.505 1.266 2.724 2.828 2.724h59.49c1.557 0 2.828-1.222 2.828-2.725V27.243c0-1.506-1.266-2.724-2.828-2.724h-59.49c-1.557 0-2.828 1.222-2.828 2.724zm18.213 29.399l-5.937-4.616-.904-.703-.893.717L30.25 62.31l1.814 2.092 12.802-10.27-1.797.013 27.966 21.744 1.78-2.119-19.809-15.402 20.876-19.244-1.871.075 26.027 20.273 1.783-2.117-26.028-20.273-.97-.756-.9.831-21.137 19.485zM29.74 27.243c0-3.009 2.54-5.448 5.66-5.448h59.49c3.126 0 5.66 2.438 5.66 5.448v43.59c0 3.009-2.54 5.448-5.66 5.448h-59.49c-3.126 0-5.66-2.438-5.66-5.449V27.243zm16.286 17.708c4.302 0 7.79-3.354 7.79-7.492 0-4.137-3.488-7.491-7.79-7.491s-7.79 3.354-7.79 7.491c0 4.138 3.488 7.492 7.79 7.492zm0-2.724c-2.738 0-4.957-2.134-4.957-4.768 0-2.633 2.22-4.767 4.957-4.767 2.738 0 4.957 2.134 4.957 4.767 0 2.634-2.22 4.768-4.957 4.768z"/>
        <text fill="#DC285C" font-family="Montserrat-Medium, Montserrat" font-size="14" font-weight="400" transform="translate(14.879 93.607)">
            <tspan x=".309" y="14.688">Escolher imagem</tspan>
        </text>
        <use stroke="#C7C7C7" stroke-dasharray="4.184" stroke-width="3.347" mask="url(#b)" xlink:href="#a"/>
    </g>
</svg>
