<?xml version="1.0"?>
<svg xmlns="http://www.w3.org/2000/svg" height="512px" viewBox="0 -86 512.0003 512" width="512px"><path d="m509.070312 242.929688-32.929687-32.929688 32.929687-32.929688c3.90625-3.902343 3.90625-10.234374 0-14.140624l-32.929687-32.929688 32.929687-32.929688c1.875-1.875 2.929688-4.417968 2.929688-7.070312s-1.054688-5.195312-2.929688-7.070312l-32.929687-32.929688 32.929687-32.929688c2.859376-2.859374 3.714844-7.160156 2.167969-10.898437-1.546875-3.734375-5.191406-6.171875-9.238281-6.171875h-492c-5.523438 0-10 4.476562-10 10v320c0 5.523438 4.476562 10 10 10h492c4.042969 0 7.691406-2.4375 9.238281-6.171875 1.546875-3.738281.691407-8.039063-2.167969-10.898437l-32.929687-32.929688 32.929687-32.929688c3.90625-3.902343 3.90625-10.234374 0-14.140624zm-54.140624 40c-3.90625 3.90625-3.90625 10.238281 0 14.140624l22.925781 22.929688h-117.851563v-22c0-5.523438-4.480468-10-10-10-5.523437 0-10 4.476562-10 10v22h-320.003906v-300h320.003906v22c0 5.523438 4.476563 10 10 10 5.519532 0 10-4.476562 10-10v-22h117.851563l-22.925781 22.929688c-1.875 1.875-2.929688 4.417968-2.929688 7.070312s1.054688 5.195312 2.929688 7.070312l32.925781 32.929688-32.925781 32.929688c-3.90625 3.90625-3.90625 10.238281 0 14.140624l32.925781 32.929688-32.925781 32.929688c-3.90625 3.90625-3.90625 10.238281 0 14.140624l32.925781 32.929688zm0 0" fill="#c1c6c9"/><path d="m309.996094 280h-60c-5.519532 0-10 4.476562-10 10s4.480468 10 10 10h60c5.523437 0 10-4.476562 10-10s-4.476563-10-10-10zm0 0" fill="#c1c6c9"/><path d="m69.996094 280h-20c-5.519532 0-10 4.476562-10 10s4.480468 10 10 10h20c5.523437 0 10-4.476562 10-10s-4.476563-10-10-10zm0 0" fill="#c1c6c9"/><path d="m209.996094 280h-100c-5.519532 0-10 4.476562-10 10s4.480468 10 10 10h100c5.523437 0 10-4.476562 10-10s-4.476563-10-10-10zm0 0" fill="#c1c6c9"/><path d="m50 260h90c5.511719 0 10-4.480469 10-10 0-5.511719-4.488281-10-10-10h-90c-5.519531 0-10 4.488281-10 10 0 5.519531 4.480469 10 10 10zm0 0" fill="#c1c6c9"/><path d="m170 250c0 5.519531 4.480469 10 10 10 5.511719 0 10-4.480469 10-10 0-5.511719-4.488281-10-10-10-5.519531 0-10 4.488281-10 10zm0 0" fill="#c1c6c9"/><path d="m310 240h-90c-5.519531 0-10 4.488281-10 10 0 5.519531 4.480469 10 10 10h90c5.511719 0 10-4.480469 10-10 0-5.511719-4.492188-10-10-10zm0 0" fill="#c1c6c9"/><path d="m350.003906 72c-5.523437 0-10 4.476562-10 10v32c0 5.523438 4.476563 10 10 10 5.519532 0 10-4.476562 10-10v-32c0-5.523438-4.480468-10-10-10zm0 0" fill="#c1c6c9"/><path d="m350.003906 216c-5.523437 0-10 4.476562-10 10v32c0 5.523438 4.476563 10 10 10 5.519532 0 10-4.476562 10-10v-32c0-5.523438-4.480468-10-10-10zm0 0" fill="#c1c6c9"/><path d="m350.003906 144c-5.523437 0-10 4.476562-10 10v32c0 5.523438 4.476563 10 10 10 5.519532 0 10-4.476562 10-10v-32c0-5.523438-4.480468-10-10-10zm0 0" fill="#c1c6c9"/><path d="m229.253906 138.507812c-19.714844 0-35.746094 16.035157-35.746094 35.746094 0 19.710938 16.03125 35.746094 35.746094 35.746094 19.710938 0 35.742188-16.035156 35.742188-35.746094 0-19.710937-16.03125-35.746094-35.742188-35.746094zm0 51.492188c-8.683594 0-15.746094-7.0625-15.746094-15.746094s7.0625-15.746094 15.746094-15.746094c8.679688 0 15.742188 7.0625 15.742188 15.746094s-7.0625 15.746094-15.742188 15.746094zm0 0" fill="#c1c6c9"/><path d="m130.742188 111.492188c19.710937 0 35.75-16.035157 35.75-35.746094 0-19.710938-16.039063-35.746094-35.75-35.746094-19.710938 0-35.746094 16.035156-35.746094 35.746094 0 19.710937 16.035156 35.746094 35.746094 35.746094zm0-51.492188c8.683593 0 15.75 7.0625 15.75 15.746094s-7.066407 15.746094-15.75 15.746094c-8.679688 0-15.746094-7.0625-15.746094-15.746094s7.066406-15.746094 15.746094-15.746094zm0 0" fill="#c1c6c9"/><path d="m104.644531 200.355469c1.953125 1.953125 4.511719 2.929687 7.070313 2.929687s5.117187-.976562 7.070312-2.929687l136.566406-136.566407c3.90625-3.90625 3.90625-10.238281 0-14.144531s-10.234374-3.90625-14.140624 0l-136.566407 136.566407c-3.90625 3.90625-3.90625 10.238281 0 14.144531zm0 0" fill="#c1c6c9"/></svg>
