<?xml version="1.0" encoding="iso-8859-1"?>
<!-- Generator: Adobe Illustrator 19.0.0, SVG Export Plug-In . SVG Version: 6.00 Build 0)  -->
<svg xmlns="http://www.w3.org/2000/svg" xmlns:xlink="http://www.w3.org/1999/xlink" version="1.1" id="Capa_1" x="0px" y="0px" viewBox="0 0 512.001 512.001" style="enable-background:new 0 0 512.001 512.001;" xml:space="preserve" width="512px" height="512px">
<g>
	<g>
		<path d="M448.803,145.024H63.197C28.35,145.024,0,173.373,0,208.22v95.562c0,34.846,28.35,63.196,63.197,63.196h385.608    c34.847,0,63.197-28.35,63.197-63.196V208.22C512,173.373,483.65,145.024,448.803,145.024z M482.005,303.78h-0.001    c0,18.306-14.893,33.199-33.2,33.199H63.197c-18.307,0.001-33.2-14.892-33.2-33.199v-95.562c0-18.306,14.893-33.199,33.2-33.199    h385.608c18.307,0,33.2,14.893,33.2,33.199V303.78z" fill="#8d8d8d"/>
	</g>
</g>
<g>
	<g>
		<path d="M149.242,240.253c-1.755-2.283-3.922-3.425-6.495-3.425c-0.938,0-1.816,0.175-2.634,0.527l-18.611,6.32l0.702-18.26    c-0.118-2.81-1.04-4.916-2.763-6.321c-1.723-1.405-3.846-2.107-6.367-2.107c-2.64,0-4.82,0.732-6.543,2.195    c-1.726,1.465-2.648,3.542-2.763,6.233l0.878,17.909l-18.647-5.969c-0.829-0.352-1.718-0.527-2.664-0.527    c-2.725,0-5.034,0.996-6.927,2.985c-1.893,1.992-2.839,4.214-2.839,6.672c0,5.152,1.989,8.137,5.969,8.955l18.26,5.267    l-11.588,16.504c-1.405,1.641-2.107,3.512-2.107,5.618c0,2.694,1.235,4.888,3.709,6.584c2.472,1.698,4.946,2.546,7.421,2.546    c2.826,0,4.886-1.054,6.181-3.161l11.66-17.733l11.237,17.558c1.405,2.225,3.627,3.336,6.671,3.336    c2.692,0,5.149-0.906,7.374-2.722c2.222-1.813,3.336-4.066,3.336-6.759c0-2.223-0.469-3.921-1.405-5.091l-12.291-17.734    l17.909-4.213c3.978-0.817,5.969-3.394,5.969-7.725C151.875,245.023,150.997,242.536,149.242,240.253z" fill="#8d8d8d"/>
	</g>
</g>
<g>
	<g>
		<path d="M253.008,240.253c-1.755-2.283-3.922-3.425-6.495-3.425c-0.938,0-1.816,0.175-2.634,0.527l-18.611,6.32l0.702-18.26    c-0.118-2.81-1.04-4.916-2.763-6.321c-1.723-1.405-3.847-2.107-6.367-2.107c-2.64,0-4.82,0.732-6.543,2.195    c-1.726,1.465-2.648,3.542-2.763,6.233l0.878,17.909l-18.647-5.969c-0.829-0.352-1.718-0.527-2.664-0.527    c-2.725,0-5.034,0.996-6.927,2.985c-1.893,1.992-2.839,4.214-2.839,6.672c0,5.152,1.989,8.137,5.969,8.955l18.26,5.267    l-11.588,16.504c-1.405,1.641-2.107,3.512-2.107,5.618c0,2.694,1.235,4.888,3.709,6.584c2.472,1.698,4.946,2.546,7.421,2.546    c2.826,0,4.886-1.054,6.181-3.161l11.66-17.733l11.237,17.558c1.405,2.225,3.627,3.336,6.671,3.336    c2.692,0,5.149-0.906,7.374-2.722c2.222-1.813,3.336-4.066,3.336-6.759c0-2.223-0.469-3.921-1.405-5.091l-12.291-17.734    l17.909-4.213c3.978-0.817,5.969-3.394,5.969-7.725C255.642,245.023,254.764,242.536,253.008,240.253z" fill="#8d8d8d"/>
	</g>
</g>
<g>
	<g>
		<path d="M356.774,240.253c-1.754-2.283-3.922-3.425-6.495-3.425c-0.938,0-1.816,0.175-2.634,0.527l-18.611,6.32l0.702-18.26    c-0.118-2.81-1.04-4.916-2.763-6.321c-1.723-1.405-3.847-2.107-6.367-2.107c-2.64,0-4.82,0.732-6.543,2.195    c-1.726,1.465-2.648,3.542-2.763,6.233l0.878,17.909l-18.647-5.969c-0.829-0.352-1.718-0.527-2.664-0.527    c-2.725,0-5.034,0.996-6.927,2.985c-1.893,1.992-2.839,4.214-2.839,6.672c0,5.152,1.989,8.137,5.969,8.955l18.26,5.267    l-11.588,16.504c-1.405,1.641-2.107,3.512-2.107,5.618c0,2.694,1.235,4.888,3.709,6.584c2.472,1.698,4.946,2.546,7.421,2.546    c2.826,0,4.886-1.054,6.181-3.161l11.66-17.733l11.237,17.558c1.405,2.225,3.627,3.336,6.671,3.336    c2.692,0,5.149-0.906,7.374-2.722c2.222-1.813,3.336-4.066,3.336-6.759c0-2.223-0.469-3.921-1.405-5.091l-12.291-17.734    l17.909-4.213c3.978-0.817,5.969-3.394,5.969-7.725C359.408,245.023,358.53,242.536,356.774,240.253z" fill="#8d8d8d"/>
	</g>
</g>
<g>
	<g>
		<path d="M441.102,266.274c-0.894-1.445-2.158-2.17-3.797-2.17h-4.596v-7.994c0-1.751-0.82-3.084-2.459-3.997    c-1.64-0.914-3.6-1.372-5.879-1.372c-2.282,0-4.241,0.458-5.879,1.372c-1.641,0.914-2.459,2.247-2.459,3.997v7.994h-9.193    l18.921-37.949c0.356-0.855,0.535-1.532,0.535-2.031c0-1.781-0.962-3.277-2.887-4.49c-1.924-1.211-3.742-1.817-5.451-1.817    c-3.137,0-5.452,1.413-6.948,4.235l-24.693,47.959c-0.57,1.059-0.855,2.118-0.855,3.177c0,1.684,0.518,3.013,1.55,3.989    s2.369,1.463,4.009,1.463h25.014v11.919c0,1.726,0.818,3.057,2.459,3.993c1.639,0.937,3.598,1.405,5.879,1.405    c2.28,0,4.24-0.468,5.879-1.405c1.639-0.937,2.459-2.269,2.459-3.993v-11.919h4.596c1.283,0,2.459-0.757,3.528-2.272    c1.069-1.513,1.604-3.18,1.604-4.997C442.438,269.421,441.992,267.721,441.102,266.274z" fill="#8d8d8d"/>
	</g>
</g>
<g>
</g>
<g>
</g>
<g>
</g>
<g>
</g>
<g>
</g>
<g>
</g>
<g>
</g>
<g>
</g>
<g>
</g>
<g>
</g>
<g>
</g>
<g>
</g>
<g>
</g>
<g>
</g>
<g>
</g>
</svg>
