<svg xmlns="http://www.w3.org/2000/svg" xmlns:xlink="http://www.w3.org/1999/xlink" width="14" height="14" viewBox="0 0 14 14">
    <defs>
        <path id="a" d="M0 0v14h14V0z"/>
    </defs>
    <g fill="none" fill-rule="evenodd">
        <mask id="b" fill="#fff">
            <use xlink:href="#a"/>
        </mask>
        <path fill="#FB6767" d="M8.238 7l5.506-5.505A.876.876 0 0 0 12.506.257L7 5.762 1.495.257A.875.875 0 1 0 .256 1.495L5.763 7 .256 12.505a.876.876 0 0 0 1.239 1.239L7 8.238l5.506 5.506a.873.873 0 0 0 1.238 0 .876.876 0 0 0 0-1.239L8.238 7z" mask="url(#b)"/>
    </g>
</svg>
