<svg xmlns="http://www.w3.org/2000/svg" width="72" height="56" viewBox="0 0 72 56">
    <path fill="#C7C7C7" fill-rule="nonzero" d="M3.573 6.243v43.59c0 1.505 1.266 2.724 2.828 2.724h59.49c1.557 0 2.828-1.222 2.828-2.725V6.243c0-1.506-1.266-2.724-2.828-2.724H6.401c-1.557 0-2.828 1.222-2.828 2.724zm18.213 29.399l-5.937-4.616-.904-.703-.893.717L1.25 41.31l1.814 2.092 12.802-10.27-1.797.013 27.966 21.744 1.78-2.119-19.809-15.402 20.876-19.244-1.871.075 26.027 20.273 1.783-2.117-26.028-20.273-.97-.756-.9.831-21.137 19.485zM.74 6.243C.74 3.234 3.28.795 6.4.795h59.49c3.126 0 5.66 2.438 5.66 5.448v43.59c0 3.009-2.54 5.448-5.66 5.448H6.401c-3.126 0-5.66-2.438-5.66-5.449V6.243zm16.286 17.708c4.302 0 7.79-3.354 7.79-7.492 0-4.137-3.488-7.491-7.79-7.491s-7.79 3.354-7.79 7.491c0 4.138 3.488 7.492 7.79 7.492zm0-2.724c-2.738 0-4.957-2.134-4.957-4.768 0-2.633 2.22-4.767 4.957-4.767 2.738 0 4.957 2.134 4.957 4.767 0 2.634-2.22 4.768-4.957 4.768z"/>
</svg>
